<svg width="20" height="19" viewBox="0 0 20 19" fill="none" xmlns="http://www.w3.org/2000/svg">
<path fill-rule="evenodd" clip-rule="evenodd" d="M11.5 0C13.7543 0 15.9163 0.895533 17.5104 2.48959C19.1045 4.08365 20 6.24566 20 8.5C20 10.7543 19.1045 12.9163 17.5104 14.5104C15.9163 16.1045 13.7543 17 11.5 17H11V17.99C11 18.1227 10.9738 18.2541 10.923 18.3767C10.8722 18.4993 10.7977 18.6107 10.7038 18.7045C10.6099 18.7983 10.4985 18.8727 10.3758 18.9234C10.2532 18.9741 10.1217 19.0001 9.989 19C7.529 18.998 5.037 18.177 3.146 16.496C1.238 14.798 0.002 12.275 0 9.009V8.5C0 6.24566 0.895533 4.08365 2.48959 2.48959C4.08365 0.895533 6.24566 0 8.5 0H11.5ZM6.5 7C6.10218 7 5.72064 7.15804 5.43934 7.43934C5.15804 7.72064 5 8.10218 5 8.5C5 8.89782 5.15804 9.27936 5.43934 9.56066C5.72064 9.84196 6.10218 10 6.5 10C6.89782 10 7.27936 9.84196 7.56066 9.56066C7.84196 9.27936 8 8.89782 8 8.5C8 8.10218 7.84196 7.72064 7.56066 7.43934C7.27936 7.15804 6.89782 7 6.5 7ZM13.5 7C13.1022 7 12.7206 7.15804 12.4393 7.43934C12.158 7.72064 12 8.10218 12 8.5C12 8.89782 12.158 9.27936 12.4393 9.56066C12.7206 9.84196 13.1022 10 13.5 10C13.8978 10 14.2794 9.84196 14.5607 9.56066C14.842 9.27936 15 8.89782 15 8.5C15 8.10218 14.842 7.72064 14.5607 7.43934C14.2794 7.15804 13.8978 7 13.5 7Z" fill="#0057FF"/>
</svg>
