<svg width="20" height="20" viewBox="0 0 20 20" fill="none" xmlns="http://www.w3.org/2000/svg">
<path d="M18.927 7.99C12.317 7.082 6.617 11.99 7 18.5M4.5 6C4.5 6.53043 4.71071 7.03914 5.08579 7.41421C5.46086 7.78929 5.96957 8 6.5 8C7.03043 8 7.53914 7.78929 7.91421 7.41421C8.28929 7.03914 8.5 6.53043 8.5 6C8.5 5.46957 8.28929 4.96086 7.91421 4.58579C7.53914 4.21071 7.03043 4 6.5 4C5.96957 4 5.46086 4.21071 5.08579 4.58579C4.71071 4.96086 4.5 5.46957 4.5 6Z" stroke="#9E9E9E" stroke-width="1.5" stroke-linecap="round" stroke-linejoin="round"/>
<path d="M1 11.066C3.78 10.681 6.275 12.024 7.624 14.166" stroke="#9E9E9E" stroke-width="1.5" stroke-linecap="round" stroke-linejoin="round"/>
<path d="M1 10C1 5.757 1 3.636 2.318 2.318C3.636 1 5.758 1 10 1C14.243 1 16.364 1 17.682 2.318C19 3.636 19 5.758 19 10C19 14.243 19 16.364 17.682 17.682C16.364 19 14.242 19 10 19C5.757 19 3.636 19 2.318 17.682C1 16.364 1 14.242 1 10Z" stroke="#9E9E9E" stroke-width="1.5" stroke-linecap="round" stroke-linejoin="round"/>
</svg>
